# xmcd
#
# Track frame offsets:
#	150
#	13159
#	23713
#	34635
#	47859
#	59782
#	75974
#	89201
#	100067
#	110764
#	121272
#	131430
#	145399
#
# Disc length: 2087 seconds
#
# Revision: 1
# Processed by: cddbd v1.5.1PL0 Copyright (c) Steve Scherf et al.
# Submitted via: EasyCDDAExtractor 8.2.3.1
#
DISCID=b208250d
DTITLE=K. C. McKanzie
DYEAR=2004
DGENRE=
TTITLE0=Sailor Song
TTITLE1=My Man Grows Wild
TTITLE2=Love Is A Nasty Thing
TTITLE3=The Saddest Bird
TTITLE4=He Moves Me
TTITLE5=Ballad of a Fair Maid
TTITLE6=When You Awake
TTITLE7=Whiskeyman
TTITLE8=Poor Girl
TTITLE9=Son of the Devil
TTITLE10=If You Decide
TTITLE11=In the End It's Dark
TTITLE12=23 (for Joni Mitchell)
EXTD=
EXTT0=
EXTT1=
EXTT2=
EXTT3=
EXTT4=
EXTT5=
EXTT6=
EXTT7=
EXTT8=
EXTT9=
EXTT10=
EXTT11=
EXTT12=
PLAYORDER=
